{
	"asset":{
		"version":"2.0",
		"generator":"Maxon Cinema 4D 2024.5.1 (#200000219)"
	},
	"scenes":[{
		"nodes":[0,
		1]
	}],
	"nodes":[{
		"name":"Loft.2",
		"mesh":0,
		"translation":[9.705854415893555,
		3.6118838787078859,
		-5.053486347198486],
		"rotation":[-0.4447421133518219,
		0.0005305447848513722,
		-0.8956578969955444,
		0.00106845423579216],
		"scale":[1.0,
		1.0,
		1.0]
	},
	{
		"name":"Lathe",
		"children":[2,
		3,
		4,
		5,
		6,
		7]
	},
	{
		"name":"Loft.1",
		"translation":[-2.7533929347991945,
		-0.6843682527542114,
		3.205756425857544],
		"rotation":[0.1629462093114853,
		0.5242547988891602,
		-0.7548941373825073,
		0.35880398750305178],
		"scale":[1.0,
		1.0,
		1.0],
		"children":[8]
	},
	{
		"name":"Loft",
		"translation":[-3.163987159729004,
		-0.8708062767982483,
		3.572554349899292],
		"rotation":[0.1629462093114853,
		0.5242547988891602,
		-0.7548941373825073,
		0.35880398750305178],
		"scale":[1.0,
		1.0,
		1.0],
		"children":[9]
	},
	{
		"name":"Loft.3",
		"translation":[-3.4121928215026857,
		-2.9134373664855959,
		3.077134847640991],
		"rotation":[-0.8811919093132019,
		-0.24353155493736268,
		-0.35104116797447207,
		-0.20239390432834626],
		"scale":[1.0,
		1.0,
		1.0],
		"children":[10]
	},
	{
		"name":"Loft.2",
		"translation":[1.0391244888305665,
		0.1807301640510559,
		1.8239901065826417],
		"rotation":[-0.48192113637924197,
		0.6094252467155457,
		-0.603463888168335,
		-0.17939966917037965],
		"scale":[1.0,
		1.0,
		1.0],
		"children":[11]
	},
	{
		"name":"Loft.4",
		"translation":[1.4808906316757203,
		-0.005707825534045696,
		2.1525795459747316],
		"rotation":[-0.48192113637924197,
		0.6094252467155457,
		-0.603463888168335,
		-0.17939966917037965],
		"scale":[1.0,
		1.0,
		1.0],
		"children":[12]
	},
	{
		"name":"Loft.5",
		"translation":[1.0453928709030152,
		-2.0483388900756838,
		2.495198965072632],
		"rotation":[-0.829047679901123,
		-0.31077250838279726,
		0.46087855100631716,
		0.06075659021735191],
		"scale":[1.0,
		1.0,
		1.0],
		"children":[13]
	},
	{
		"name":"Loft.1",
		"mesh":1
	},
	{
		"name":"Loft",
		"mesh":2
	},
	{
		"name":"Loft.3",
		"mesh":3
	},
	{
		"name":"Loft.2",
		"mesh":4
	},
	{
		"name":"Loft.4",
		"mesh":5
	},
	{
		"name":"Loft.5",
		"mesh":6
	}],
	"meshes":[{
		"name":"Loft.2",
		"primitives":[{
			"attributes":{
				"POSITION":1
			},
			"indices":0
		}]
	},
	{
		"name":"Loft.1",
		"primitives":[{
			"attributes":{
				"POSITION":3
			},
			"indices":2,
			"material":0
		}]
	},
	{
		"name":"Loft",
		"primitives":[{
			"attributes":{
				"POSITION":5
			},
			"indices":4,
			"material":1
		}]
	},
	{
		"name":"Loft.3",
		"primitives":[{
			"attributes":{
				"POSITION":7
			},
			"indices":6,
			"material":0
		}]
	},
	{
		"name":"Loft.2",
		"primitives":[{
			"attributes":{
				"POSITION":9
			},
			"indices":8,
			"material":0
		}]
	},
	{
		"name":"Loft.4",
		"primitives":[{
			"attributes":{
				"POSITION":11
			},
			"indices":10,
			"material":1
		}]
	},
	{
		"name":"Loft.5",
		"primitives":[{
			"attributes":{
				"POSITION":13
			},
			"indices":12,
			"material":0
		}]
	}],
	"accessors":[{
		"bufferView":0,
		"type":"SCALAR",
		"componentType":5123,
		"count":4578,
		"min":[0],
		"byteOffset":0,
		"max":[793]
	},
	{
		"bufferView":1,
		"type":"VEC3",
		"componentType":5126,
		"count":794,
		"min":[0.07431149482727051,
		0.6471522450447083,
		-0.05659553408622742],
		"byteOffset":0,
		"max":[2.3558030128479006,
		1.2737503051757813,
		3.2834856510162355]
	},
	{
		"bufferView":2,
		"type":"SCALAR",
		"componentType":5123,
		"count":12228,
		"min":[0],
		"byteOffset":0,
		"max":[2039]
	},
	{
		"bufferView":3,
		"type":"VEC3",
		"componentType":5126,
		"count":2040,
		"min":[0.2820814251899719,
		0.6305500268936157,
		1.5132144689559937],
		"byteOffset":0,
		"max":[2.088824987411499,
		1.6522489786148072,
		3.3199641704559328]
	},
	{
		"bufferView":4,
		"type":"SCALAR",
		"componentType":5123,
		"count":9174,
		"min":[0],
		"byteOffset":0,
		"max":[1559]
	},
	{
		"bufferView":5,
		"type":"VEC3",
		"componentType":5126,
		"count":1560,
		"min":[0.09418369829654694,
		0.9670853018760681,
		0.08194974064826966],
		"byteOffset":0,
		"max":[2.331331729888916,
		1.152806043624878,
		3.217756748199463]
	},
	{
		"bufferView":6,
		"type":"SCALAR",
		"componentType":5123,
		"count":172506,
		"min":[0],
		"byteOffset":0,
		"max":[28759]
	},
	{
		"bufferView":7,
		"type":"VEC3",
		"componentType":5126,
		"count":28760,
		"min":[-0.9931702613830566,
		-1.6150786876678467,
		0.0069761984050273899],
		"byteOffset":0,
		"max":[0.992480993270874,
		1.6153035163879395,
		0.4572983682155609]
	},
	{
		"bufferView":8,
		"type":"SCALAR",
		"componentType":5123,
		"count":12228,
		"min":[0],
		"byteOffset":0,
		"max":[2039]
	},
	{
		"bufferView":9,
		"type":"VEC3",
		"componentType":5126,
		"count":2040,
		"min":[0.2820814251899719,
		0.6305500268936157,
		1.5132144689559937],
		"byteOffset":0,
		"max":[2.088824987411499,
		1.6522489786148072,
		3.3199641704559328]
	},
	{
		"bufferView":10,
		"type":"SCALAR",
		"componentType":5123,
		"count":9174,
		"min":[0],
		"byteOffset":0,
		"max":[1559]
	},
	{
		"bufferView":11,
		"type":"VEC3",
		"componentType":5126,
		"count":1560,
		"min":[0.09418369829654694,
		0.9670853018760681,
		0.08194974064826966],
		"byteOffset":0,
		"max":[2.331331729888916,
		1.152806043624878,
		3.217756748199463]
	},
	{
		"bufferView":12,
		"type":"SCALAR",
		"componentType":5123,
		"count":172506,
		"min":[0],
		"byteOffset":0,
		"max":[28759]
	},
	{
		"bufferView":13,
		"type":"VEC3",
		"componentType":5126,
		"count":28760,
		"min":[-0.9931702613830566,
		-1.6150786876678467,
		0.0069761984050273899],
		"byteOffset":0,
		"max":[0.992480993270874,
		1.6153035163879395,
		0.4572983682155609]
	}],
	"bufferViews":[{
		"buffer":0,
		"byteOffset":0,
		"byteLength":9156,
		"target":34963
	},
	{
		"buffer":0,
		"byteOffset":9156,
		"byteLength":9528,
		"target":34962
	},
	{
		"buffer":1,
		"byteOffset":0,
		"byteLength":24456,
		"target":34963
	},
	{
		"buffer":1,
		"byteOffset":24456,
		"byteLength":24480,
		"target":34962
	},
	{
		"buffer":2,
		"byteOffset":0,
		"byteLength":18348,
		"target":34963
	},
	{
		"buffer":2,
		"byteOffset":18348,
		"byteLength":18720,
		"target":34962
	},
	{
		"buffer":3,
		"byteOffset":0,
		"byteLength":345012,
		"target":34963
	},
	{
		"buffer":3,
		"byteOffset":345012,
		"byteLength":345120,
		"target":34962
	},
	{
		"buffer":4,
		"byteOffset":0,
		"byteLength":24456,
		"target":34963
	},
	{
		"buffer":4,
		"byteOffset":24456,
		"byteLength":24480,
		"target":34962
	},
	{
		"buffer":5,
		"byteOffset":0,
		"byteLength":18348,
		"target":34963
	},
	{
		"buffer":5,
		"byteOffset":18348,
		"byteLength":18720,
		"target":34962
	},
	{
		"buffer":6,
		"byteOffset":0,
		"byteLength":345012,
		"target":34963
	},
	{
		"buffer":6,
		"byteOffset":345012,
		"byteLength":345120,
		"target":34962
	}],
	"buffers":[{
		"uri":"data:application/octet-stream;base64,",
		"byteLength":18684
	},
	{
		"uri":"data:application/octet-stream;base64,",
		"byteLength":48936
	},
	{
		"uri":"data:application/octet-stream;base64,",
		"byteLength":37068
	},
	{
		"uri":"data:application/octet-stream;base64,",
		"byteLength":690132
	},
	{
		"uri":"data:application/octet-stream;base64,",
		"byteLength":48936
	},
	{
		"uri":"data:application/octet-stream;base64,",
		"byteLength":37068
	},
	{
		"uri":"data:application/octet-stream;base64,",
		"byteLength":690132
	}],
	"materials":[{
		"pbrMetallicRoughness":{
			"baseColorFactor":[1.0,
			1.0,
			1.0,
			1.0],
			"metallicFactor":0.6,
			"roughnessFactor":0.6
		},
		"emissiveFactor":[0.0,
		0.0,
		0.0],
		"alphaMode":"OPAQUE",
		"doubleSided":false,
		"name":"Mat.5"
	},
	{
		"pbrMetallicRoughness":{
			"baseColorFactor":[0.8,
			0.8,
			0.8,
			1.0],
			"metallicFactor":0.0,
			"roughnessFactor":0.5
		},
		"emissiveFactor":[0.0,
		0.0,
		0.0],
		"alphaMode":"OPAQUE",
		"doubleSided":false,
		"name":"Mat.4"
	}]
}