<svg xmlns="http://www.w3.org/2000/svg"  viewBox="0 0 48 48" width="48px" height="48px"><path d="M 24 6.0078125 C 18.878463 6.0078125 13.756508 7.9583356 9.8574219 11.857422 C 2.0592494 19.655594 2.0592494 32.344406 9.8574219 40.142578 A 1.501221 1.501221 0 1 0 11.980469 38.019531 C 5.3286409 31.367704 5.3286409 20.630343 11.980469 13.978516 C 18.632296 7.3266877 29.369657 7.3266877 36.021484 13.978516 C 42.673312 20.630343 42.673312 31.367704 36.021484 38.019531 A 1.5005306 1.5005306 0 1 0 38.142578 40.142578 C 45.940751 32.344406 45.940751 19.655594 38.142578 11.857422 C 34.243492 7.9583356 29.121537 6.0078125 24 6.0078125 z M 24 13.009766 C 20.669969 13.009766 17.338739 14.276496 14.806641 16.808594 C 9.7424444 21.87279 9.7424444 30.129164 14.806641 35.193359 A 1.50015 1.50015 0 1 0 16.927734 33.072266 C 13.00993 29.154461 13.00993 22.847492 16.927734 18.929688 C 20.845539 15.011883 27.152508 15.011882 31.070312 18.929688 C 34.988118 22.847492 34.988118 29.154461 31.070312 33.072266 A 1.50015 1.50015 0 1 0 33.191406 35.193359 C 38.255602 30.129164 38.255602 21.87279 33.191406 16.808594 C 30.659308 14.276496 27.330031 13.009766 24 13.009766 z M 24 20 C 20.691 20 18 22.691 18 26 C 18 29.309 20.691 32 24 32 C 27.309 32 30 29.309 30 26 C 30 22.691 27.309 20 24 20 z"/></svg>