<svg xmlns="http://www.w3.org/2000/svg" width="39.681" height="39.681" viewBox="0 0 39.681 39.681">
  <path id="icons8-instagram" d="M14.022,3A11.056,11.056,0,0,0,3,14.022V31.658A11.056,11.056,0,0,0,14.022,42.681H31.658A11.056,11.056,0,0,0,42.681,31.658V14.022A11.056,11.056,0,0,0,31.658,3Zm0,4.409H31.658a6.581,6.581,0,0,1,6.613,6.613V31.658a6.581,6.581,0,0,1-6.613,6.613H14.022a6.581,6.581,0,0,1-6.613-6.613V14.022A6.581,6.581,0,0,1,14.022,7.409Zm19.84,2.2a2.2,2.2,0,1,0,2.2,2.2A2.2,2.2,0,0,0,33.863,9.613Zm-11.022,2.2a10.887,10.887,0,0,0-8.263,3.5,11.29,11.29,0,0,0-2.76,7.526,11.29,11.29,0,0,0,2.76,7.526,10.887,10.887,0,0,0,8.263,3.5,10.887,10.887,0,0,0,8.263-3.5,11.29,11.29,0,0,0,2.76-7.526,11.29,11.29,0,0,0-2.76-7.526A10.887,10.887,0,0,0,22.84,11.818Zm0,4.409A6.188,6.188,0,0,1,27.8,18.242a7.236,7.236,0,0,1,0,9.2,6.188,6.188,0,0,1-4.964,2.015,6.188,6.188,0,0,1-4.964-2.015,7.236,7.236,0,0,1,0-9.2A6.188,6.188,0,0,1,22.84,16.227Z" transform="translate(-3 -3)" fill="#007fff"/>
</svg>
