<svg xmlns="http://www.w3.org/2000/svg" width="47" height="35.743" viewBox="0 0 47 35.743">
  <path id="Path_2" data-name="Path 2" d="M49,8.667a20.287,20.287,0,0,1-5.539,1.421A9.172,9.172,0,0,0,47.7,5.1a20.155,20.155,0,0,1-6.124,2.191,9.945,9.945,0,0,0-7.037-2.85c-5.325,0-9.642,4.041-9.642,9.023a8.566,8.566,0,0,0,.249,2.055A28.037,28.037,0,0,1,5.271,6.085a8.564,8.564,0,0,0-1.3,4.539,8.88,8.88,0,0,0,4.288,7.509A10.13,10.13,0,0,1,3.888,17v.113a9.2,9.2,0,0,0,7.735,8.847,10.268,10.268,0,0,1-2.542.316,10.471,10.471,0,0,1-1.813-.161,9.6,9.6,0,0,0,9.007,6.268A20.2,20.2,0,0,1,4.3,36.252,20.686,20.686,0,0,1,2,36.125,28.673,28.673,0,0,0,16.78,40.179c17.736,0,27.432-13.75,27.432-25.674q0-.586-.027-1.167A18.975,18.975,0,0,0,49,8.667Z" transform="translate(-1.999 -4.436)" fill="#007fff"/>
</svg>
