<svg xmlns="http://www.w3.org/2000/svg"  viewBox="0 0 64 64" width="64px" height="64px"><path d="M 25 2 A 1 1 0 0 0 24 3 A 9.011 9.011 0 0 0 32 11.941406 L 32 14 L 30 14 A 3 3 0 0 0 27 17 L 27 27 A 3 3 0 0 0 30 30 L 32 30 L 32 31 A 8.944 8.944 0 0 0 32.673828 34.40625 L 32.681641 34.429688 A 9.019 9.019 0 0 0 40 39.941406 L 40 42.232422 A 9.01 9.01 0 0 0 33 51 L 33 53.800781 L 31.007812 51.058594 A 5.023 5.023 0 0 0 27.644531 49.050781 L 24.894531 43.550781 A 1 1 0 0 0 24 43 L 11 43 A 1 1 0 0 0 10 44 A 5.006 5.006 0 0 0 15 49 L 17 49 L 17 50 A 1 1 0 0 0 19 50 L 19 49 L 20.382812 49 L 20.757812 49.75 A 3.931 3.931 0 0 0 20.097656 55.75 A 4.02 4.02 0 0 0 23 57 L 25.853516 57 L 29.191406 61.587891 A 1.0001125 1.0001125 0 1 0 30.808594 60.412109 L 27.171875 55.412109 A 1 1 0 0 0 26.363281 55 L 23 55 A 2 2 0 0 1 21 52.890625 A 2.119 2.119 0 0 1 23.169922 51 L 26.962891 51 A 3.011 3.011 0 0 1 29.390625 52.236328 L 36.189453 61.587891 A 1.0001125 1.0001125 0 0 0 37.808594 60.412109 L 35 56.550781 L 35 51 A 7.008 7.008 0 0 1 42 44 L 53 44 A 4 4 0 0 1 57 48 L 57 61 A 1 1 0 0 0 59 61 L 59 48 A 6.006 6.006 0 0 0 53 42 L 42 42 L 42 39.949219 A 12.991 12.991 0 0 0 52 33.900391 L 52 39 A 1 1 0 0 0 54 39 L 54 28 A 0.909 0.909 0 0 0 53.958984 27.814453 C 53.975984 27.544453 54 27.275 54 27 L 54 25 A 3 3 0 0 0 54.515625 19.052734 L 57.099609 13.232422 A 10.369 10.369 0 0 0 58 9 A 7.008 7.008 0 0 0 51 2 A 1 1 0 0 0 51 4 A 5.007 5.007 0 0 1 56 9 A 8.354 8.354 0 0 1 55.273438 12.419922 L 52.349609 19 L 45 19 L 45 18 A 4 4 0 0 0 41 14 A 1 1 0 0 0 41 16 A 2 2 0 0 1 43 18 L 43 26 A 2 2 0 0 1 41 28 L 30 28 A 1 1 0 0 1 29 27 L 29 26 L 38 26 A 3 3 0 0 0 41 23 L 41 21 A 3 3 0 0 0 38 18 L 29 18 L 29 17 A 1 1 0 0 1 30 16 L 37 16 A 1 1 0 0 0 37 14 L 34 14 L 34 12 L 46 12 A 2 2 0 0 1 48 14 L 48 16 A 1 1 0 0 0 50 16 L 50 14 A 4 4 0 0 0 46 10 L 33 10 A 7.011 7.011 0 0 1 26.070312 4 L 47 4 A 1 1 0 0 0 47 2 L 25 2 z M 2.9628906 5 A 1 1 0 0 0 2 6 L 2 27 A 1 1 0 0 0 3 28 A 1 1 0 0 0 4 27 L 4 7.6171875 L 22 16.617188 L 22 19 A 1 1 0 0 0 24 19 L 24 16 A 1 1 0 0 0 23.447266 15.105469 L 3.4472656 5.1054688 A 1 1 0 0 0 2.9628906 5 z M 11.128906 17.001953 A 5 5 0 1 0 14.988281 24.992188 A 1 1 0 0 0 14.787109 23.59375 L 12.667969 22 L 14.789062 20.408203 A 1 1 0 0 0 15.179688 19.75 A 1 1 0 0 0 14.988281 19.007812 A 5 5 0 0 0 11.128906 17.001953 z M 19 18 A 1 1 0 0 0 19 20 A 1 1 0 0 0 19 18 z M 11 19 A 2.937 2.937 0 0 1 12.65625 19.507812 L 10.400391 21.199219 A 1 1 0 0 0 10.400391 22.800781 L 12.65625 24.492188 A 2.937 2.937 0 0 1 11 25 A 3 3 0 0 1 11 19 z M 29 20 L 31.585938 20 L 35.585938 24 L 29 24 L 29 20 z M 34.414062 20 L 38 20 A 1 1 0 0 1 39 21 L 39 23 A 0.994 0.994 0 0 1 38.34375 23.929688 L 34.414062 20 z M 17 21 A 1 1 0 0 0 17 23 A 1 1 0 0 0 17 21 z M 45 21 L 54 21 A 1 1 0 0 1 54 23 L 48 23 A 1 1 0 0 0 48 25 L 52 25 L 52 27 A 11.013 11.013 0 0 1 41 38 A 6.994 6.994 0 0 1 35.253906 34.986328 A 13 13 0 0 0 41.552734 32.832031 A 1.0001245 1.0001245 0 0 0 40.443359 31.167969 A 11 11 0 0 1 34.386719 33.021484 L 34.300781 33.021484 A 6.973 6.973 0 0 1 34 31 L 34 30 L 41 30 A 4 4 0 0 0 45 26 L 45 21 z M 22.970703 22 A 1 1 0 0 0 22 23 L 22 27.382812 L 4 36.382812 L 4 31 A 1 1 0 0 0 2 31 L 2 38 A 1 1 0 0 0 3.4472656 38.900391 L 23.447266 28.900391 A 1 1 0 0 0 24 28 L 24 23 A 1 1 0 0 0 22.970703 22 z M 19 24 A 1 1 0 0 0 19 26 A 1 1 0 0 0 19 24 z M 19.888672 34.003906 A 7.009 7.009 0 0 0 15.050781 36.050781 A 1 1 0 0 0 16.464844 37.464844 A 5.008 5.008 0 0 1 23.535156 37.464844 A 0.993 0.993 0 0 0 24.242188 37.757812 A 1 1 0 0 0 24.949219 36.050781 A 7.009 7.009 0 0 0 19.888672 34.003906 z M 19.884766 38.03125 A 3.072 3.072 0 0 0 17.878906 38.878906 A 1.0002026 1.0002026 0 0 0 19.292969 40.292969 A 1.023 1.023 0 0 1 20.707031 40.292969 A 1.0002026 1.0002026 0 1 0 22.121094 38.878906 A 3.072 3.072 0 0 0 19.884766 38.03125 z M 12.171875 45 L 23.382812 45 L 25.382812 49 L 23.169922 49 A 4.354 4.354 0 0 0 22.642578 49.048828 L 21.894531 47.548828 A 1 1 0 0 0 21 47 L 15 47 A 3.006 3.006 0 0 1 12.171875 45 z M 47 48 A 5.006 5.006 0 0 0 42 53 L 42 61 A 1 1 0 0 0 44 61 L 44 53 A 3 3 0 0 1 50 53 L 50 61 A 1 1 0 0 0 52 61 L 52 53 A 5.006 5.006 0 0 0 47 48 z"/></svg>